<svg width="18" height="18" viewBox="0 0 18 18" fill="none" xmlns="http://www.w3.org/2000/svg">
<path d="M16.3929 0.375H1.60714C0.929464 0.375 0.375 0.929464 0.375 1.60714V16.3929C0.375 17.0705 0.929464 17.625 1.60714 17.625H10.8482V16.3929C10.8482 14.6679 12.2036 13.3125 13.9286 13.3125V12.0804C11.5259 12.0804 9.61607 13.9902 9.61607 16.3929H7.76786V13.9286H6.53571V16.3929H1.60714V1.60714H6.53571V10.2321H7.76786V7.15179H10.2321V5.91964H7.76786V1.60714H16.3929V5.91964H13.9286V7.15179H16.3929V16.3929H13.9286V17.625H16.3929C17.0705 17.625 17.625 17.0705 17.625 16.3929V1.60714C17.625 0.929464 17.0705 0.375 16.3929 0.375Z" fill="#1677FF"/>
</svg>
