<svg width="24" height="24" viewBox="0 0 24 24" fill="none" xmlns="http://www.w3.org/2000/svg">
<rect width="24" height="24" rx="6" fill="#FFA940"/>
<path d="M17.723 10.1266L13.873 6.27656C13.7715 6.175 13.6386 6.125 13.5058 6.125C13.373 6.125 13.2402 6.175 13.1386 6.27656L10.6215 8.79531C10.4308 8.77344 10.2386 8.76406 10.0465 8.76406C8.90271 8.76406 7.75896 9.14063 6.8199 9.89375C6.76303 9.93941 6.71642 9.99654 6.68311 10.0614C6.64979 10.1263 6.63051 10.1975 6.62653 10.2703C6.62255 10.3431 6.63396 10.4159 6.66001 10.4841C6.68605 10.5522 6.72616 10.614 6.77771 10.6656L9.61677 13.5047L6.25115 16.8672C6.2099 16.9082 6.18445 16.9624 6.17927 17.0203L6.12615 17.6016C6.11208 17.7484 6.22927 17.8734 6.37458 17.8734C6.3824 17.8734 6.39021 17.8734 6.39802 17.8719L6.97927 17.8188C7.03708 17.8141 7.09177 17.7875 7.1324 17.7469L10.498 14.3813L13.3371 17.2203C13.4386 17.3219 13.5715 17.3719 13.7043 17.3719C13.8558 17.3719 14.0058 17.3063 14.109 17.1781C14.9886 16.0797 15.3543 14.7047 15.2058 13.375L17.723 10.8578C17.9246 10.6578 17.9246 10.3297 17.723 10.1266ZM14.409 12.5828L14.0261 12.9656L14.0855 13.5031C14.1786 14.3345 14.0127 15.1743 13.6105 15.9078L8.09333 10.3875C8.2949 10.2766 8.50427 10.1828 8.72302 10.1078C9.14802 9.96094 9.59333 9.8875 10.0465 9.8875C10.1965 9.8875 10.348 9.89531 10.498 9.9125L11.0355 9.97188L11.4183 9.58906L13.5074 7.5L16.4996 10.4922L14.409 12.5828Z" fill="white"/>
</svg>
