<svg width="18" height="18" viewBox="0 0 18 18" fill="none" xmlns="http://www.w3.org/2000/svg">
<path d="M11.1966 7.78647H5.71226C5.63491 7.78647 5.57163 7.84976 5.57163 7.9271V8.98179C5.57163 9.05913 5.63491 9.12241 5.71226 9.12241H11.1966C11.274 9.12241 11.3373 9.05913 11.3373 8.98179V7.9271C11.3373 7.84976 11.274 7.78647 11.1966 7.78647ZM16.1888 15.2396L13.6224 12.6732C15.7687 10.0558 15.6193 6.17808 13.1654 3.72593C10.5638 1.12261 6.33804 1.12261 3.72593 3.72593C1.12261 6.33804 1.12261 10.5638 3.72593 13.1654C6.17808 15.6193 10.0558 15.7687 12.6732 13.6224L15.2396 16.1888C15.2958 16.238 15.3855 16.238 15.433 16.1888L16.1888 15.433C16.238 15.3855 16.238 15.2958 16.1888 15.2396ZM12.2337 12.2337C10.1455 14.3203 6.76343 14.3203 4.67515 12.2337C2.58862 10.1455 2.58862 6.76343 4.67515 4.67515C6.76343 2.58862 10.1455 2.58862 12.2337 4.67515C14.3203 6.76343 14.3203 10.1455 12.2337 12.2337Z" fill="#001D3D"/>
</svg>
