<svg width="17" height="16" viewBox="0 0 17 16" fill="none" xmlns="http://www.w3.org/2000/svg">
<path d="M15.037 6.69498H14.5V6.66732H8.50004V9.33398H12.2677C11.718 10.8863 10.241 12.0007 8.50004 12.0007C6.29104 12.0007 4.50004 10.2097 4.50004 8.00065C4.50004 5.79165 6.29104 4.00065 8.50004 4.00065C9.51971 4.00065 10.4474 4.38532 11.1537 5.01365L13.0394 3.12798C11.8487 2.01832 10.256 1.33398 8.50004 1.33398C4.81837 1.33398 1.83337 4.31898 1.83337 8.00065C1.83337 11.6823 4.81837 14.6673 8.50004 14.6673C12.1817 14.6673 15.1667 11.6823 15.1667 8.00065C15.1667 7.55365 15.1207 7.11732 15.037 6.69498Z" fill="black" fill-opacity="0.88"/>
<path d="M2.60205 4.89765L4.79238 6.50398C5.38505 5.03665 6.82038 4.00065 8.50005 4.00065C9.51972 4.00065 10.4474 4.38532 11.1537 5.01365L13.0394 3.12798C11.8487 2.01832 10.2561 1.33398 8.50005 1.33398C5.93938 1.33398 3.71872 2.77965 2.60205 4.89765Z" fill="#FF3D00"/>
<path d="M8.49994 14.6669C10.2219 14.6669 11.7866 14.0079 12.9696 12.9362L10.9063 11.1902C10.2145 11.7164 9.36909 12.0009 8.49994 12.0002C6.76594 12.0002 5.29361 10.8946 4.73894 9.35156L2.56494 11.0266C3.66827 13.1856 5.90894 14.6669 8.49994 14.6669Z" fill="#4CAF50"/>
<path d="M15.037 6.69368H14.5V6.66602H8.5V9.33268H12.2677C12.0047 10.0715 11.5311 10.7171 10.9053 11.1897L10.9063 11.189L12.9697 12.935C12.8237 13.0677 15.1667 11.3327 15.1667 7.99935C15.1667 7.55235 15.1207 7.11602 15.037 6.69368Z" fill="#1976D2"/>
</svg>
