<svg width="15" height="14" viewBox="0 0 15 14" fill="none" xmlns="http://www.w3.org/2000/svg">
<path d="M12.7714 0.0891113H2.4046C1.40133 0.0891113 0.588013 0.897251 0.588013 1.89414V12.195C0.588013 13.1919 1.40133 14 2.4046 14H12.7714C13.7747 14 14.588 13.1919 14.588 12.195V1.89414C14.588 0.897251 13.7747 0.0891113 12.7714 0.0891113Z" fill="#8D9E0D"/>
<path d="M2.62007 0V11.4888C2.62007 11.611 2.66892 11.7282 2.75589 11.8146C2.84286 11.901 2.96081 11.9495 3.0838 11.9495H7.88804C8.01102 11.9495 8.12898 11.901 8.21594 11.8146C8.30291 11.7282 8.35177 11.611 8.35177 11.4888V2.6289C8.35177 2.37547 8.18235 2.28915 7.97522 2.43691L4.28733 5.07103C4.0802 5.21878 3.91078 5.54716 3.91078 5.80059V10.1958C3.91078 10.318 3.95964 10.4352 4.0466 10.5216C4.13357 10.608 4.25152 10.6566 4.37451 10.6566H11.7583C11.8813 10.6566 11.9993 10.608 12.0862 10.5216C12.1732 10.4352 12.2221 10.318 12.2221 10.1958V5.30633C12.2221 5.18412 12.1732 5.06692 12.0862 4.98051C11.9993 4.8941 11.8813 4.84555 11.7583 4.84555H10.1062C9.98322 4.84555 9.86527 4.8941 9.7783 4.98051C9.69134 5.06692 9.64248 5.18412 9.64248 5.30633V11.5146C9.64248 11.6368 9.69134 11.754 9.7783 11.8404C9.86527 11.9268 9.98322 11.9753 10.1062 11.9753H14.5664" stroke="white" stroke-miterlimit="10"/>
<mask id="path-3-inside-1_4084_1771" fill="white">
<path d="M12.2088 0.924072C12.2088 0.924072 12.3197 1.90553 12.4545 2.04069C12.5893 2.17586 13.1912 2.29627 13.1912 2.29627C13.1912 2.29627 12.5955 2.4084 12.4586 2.54448C12.3216 2.68056 12.2088 3.68844 12.2088 3.68844C12.2088 3.68844 12.1012 2.66797 11.9614 2.53035C11.8217 2.39273 11.2266 2.29627 11.2266 2.29627C11.2266 2.29627 11.8297 2.19336 11.9685 2.05636C12.1074 1.91936 12.2088 0.924072 12.2088 0.924072Z"/>
</mask>
<path d="M12.2088 0.924072C12.2088 0.924072 12.3197 1.90553 12.4545 2.04069C12.5893 2.17586 13.1912 2.29627 13.1912 2.29627C13.1912 2.29627 12.5955 2.4084 12.4586 2.54448C12.3216 2.68056 12.2088 3.68844 12.2088 3.68844C12.2088 3.68844 12.1012 2.66797 11.9614 2.53035C11.8217 2.39273 11.2266 2.29627 11.2266 2.29627C11.2266 2.29627 11.8297 2.19336 11.9685 2.05636C12.1074 1.91936 12.2088 0.924072 12.2088 0.924072Z" fill="#7263A8"/>
<path d="M12.2088 0.924072L13.2024 0.811705L11.2139 0.822714L12.2088 0.924072ZM13.1912 2.29627L13.3762 3.27902L13.3874 1.3157L13.1912 2.29627ZM12.2088 3.68844L11.2143 3.79328L13.2026 3.7997L12.2088 3.68844ZM11.2266 2.29627L11.0584 1.31052L11.0666 3.28339L11.2266 2.29627ZM12.2088 0.924072C11.2151 1.03644 11.2151 1.0365 11.2151 1.03657C11.2151 1.03659 11.2151 1.03666 11.2151 1.03672C11.2151 1.03683 11.2152 1.03695 11.2152 1.03709C11.2152 1.03736 11.2152 1.0377 11.2153 1.0381C11.2154 1.03889 11.2155 1.03992 11.2156 1.04118C11.2159 1.0437 11.2163 1.04714 11.2168 1.05146C11.2178 1.06007 11.2193 1.07218 11.2211 1.08731C11.2248 1.11754 11.2301 1.1601 11.2369 1.2113C11.2504 1.31282 11.2703 1.45245 11.2953 1.59933C11.3195 1.74195 11.3519 1.91125 11.3925 2.06487C11.4125 2.14055 11.4399 2.23324 11.477 2.32582C11.5014 2.3867 11.5786 2.57847 11.7465 2.74683L13.1626 1.33456C13.2416 1.41376 13.2848 1.48647 13.3012 1.51574C13.3206 1.55025 13.3307 1.57496 13.3335 1.582C13.3388 1.59503 13.3354 1.58887 13.326 1.55353C13.3079 1.48511 13.2873 1.38371 13.267 1.26406C13.2473 1.14869 13.231 1.03451 13.2195 0.947774C13.2138 0.904855 13.2094 0.869678 13.2065 0.845704C13.205 0.833738 13.2039 0.824624 13.2033 0.818799C13.2029 0.815889 13.2027 0.813805 13.2025 0.812603C13.2025 0.812002 13.2024 0.811622 13.2024 0.81147C13.2024 0.811394 13.2024 0.811375 13.2024 0.811414C13.2024 0.811434 13.2024 0.811468 13.2024 0.811516C13.2024 0.81154 13.2024 0.811588 13.2024 0.8116C13.2024 0.811651 13.2024 0.811705 12.2088 0.924072ZM11.7465 2.74683C11.9373 2.93815 12.1724 3.03288 12.2536 3.06552C12.3763 3.11482 12.5026 3.15372 12.603 3.18191C12.707 3.21111 12.803 3.23435 12.8719 3.25013C12.9069 3.25812 12.936 3.26447 12.9571 3.26895C12.9677 3.2712 12.9763 3.273 12.9827 3.27432C12.9859 3.27498 12.9886 3.27552 12.9906 3.27594C12.9917 3.27615 12.9926 3.27634 12.9933 3.27649C12.9937 3.27656 12.994 3.27663 12.9943 3.27669C12.9945 3.27672 12.9946 3.27674 12.9947 3.27677C12.9948 3.27678 12.9949 3.2768 12.9949 3.27681C12.995 3.27683 12.9951 3.27684 13.1912 2.29627C13.3874 1.3157 13.3875 1.31572 13.3876 1.31573C13.3876 1.31574 13.3877 1.31575 13.3877 1.31576C13.3878 1.31578 13.3879 1.3158 13.388 1.31581C13.3881 1.31584 13.3882 1.31587 13.3883 1.31588C13.3885 1.31592 13.3885 1.31592 13.3884 1.3159C13.3882 1.31586 13.3875 1.31571 13.3862 1.31545C13.3837 1.31494 13.3793 1.31402 13.3732 1.31271C13.3608 1.31009 13.3419 1.30597 13.3183 1.30056C13.2701 1.28953 13.2073 1.27423 13.1439 1.25642C13.0769 1.23762 13.0275 1.22107 12.9994 1.20978C12.9856 1.20421 12.9909 1.20548 13.0087 1.21528C13.0182 1.22058 13.0853 1.25702 13.1626 1.33456L11.7465 2.74683ZM13.1912 2.29627C13.0063 1.31353 13.0062 1.31354 13.0061 1.31356C13.0061 1.31357 13.006 1.31358 13.0059 1.3136C13.0058 1.31362 13.0056 1.31365 13.0055 1.31368C13.0052 1.31373 13.0048 1.3138 13.0045 1.31387C13.0037 1.31401 13.0028 1.31419 13.0018 1.31439C12.9997 1.31479 12.997 1.3153 12.9938 1.31593C12.9873 1.31718 12.9787 1.31888 12.9681 1.32101C12.947 1.32525 12.918 1.33125 12.8831 1.33885C12.8144 1.35383 12.7184 1.37602 12.6145 1.40422C12.5141 1.43145 12.3873 1.46933 12.2637 1.51813C12.18 1.55114 11.9455 1.64454 11.7537 1.83512L13.1634 3.25384C13.0867 3.33009 13.0203 3.36605 13.0095 3.37195C12.9911 3.38203 12.9849 3.38359 12.998 3.37844C13.0246 3.36795 13.0724 3.35228 13.138 3.33447C13.2001 3.31763 13.2617 3.30328 13.309 3.29298C13.3321 3.28794 13.3506 3.28413 13.3627 3.28171C13.3686 3.2805 13.3729 3.27966 13.3753 3.2792C13.3765 3.27897 13.3772 3.27884 13.3773 3.27881C13.3774 3.27879 13.3774 3.2788 13.3772 3.27884C13.3771 3.27885 13.377 3.27888 13.3768 3.27891C13.3767 3.27892 13.3766 3.27894 13.3765 3.27896C13.3765 3.27897 13.3764 3.27898 13.3764 3.27899C13.3763 3.279 13.3762 3.27902 13.1912 2.29627ZM11.7537 1.83512C11.5821 2.00567 11.5039 2.20146 11.4797 2.26211C11.4423 2.35576 11.4147 2.44974 11.3945 2.52664C11.3535 2.68281 11.3208 2.85545 11.2962 3.00131C11.2709 3.15147 11.2508 3.29436 11.2371 3.39831C11.2302 3.45073 11.2248 3.4943 11.2211 3.52523C11.2192 3.54071 11.2177 3.55309 11.2167 3.56189C11.2162 3.56629 11.2158 3.56981 11.2155 3.57237C11.2154 3.57365 11.2152 3.5747 11.2152 3.5755C11.2151 3.57591 11.2151 3.57625 11.215 3.57652C11.215 3.57666 11.215 3.57679 11.215 3.5769C11.215 3.57695 11.215 3.57702 11.215 3.57705C11.215 3.57711 11.215 3.57717 12.2088 3.68844C13.2026 3.7997 13.2025 3.79976 13.2025 3.79981C13.2025 3.79982 13.2025 3.79987 13.2025 3.79989C13.2025 3.79994 13.2025 3.79997 13.2025 3.79999C13.2025 3.80002 13.2025 3.8 13.2025 3.79991C13.2025 3.79974 13.2026 3.79934 13.2027 3.79871C13.2028 3.79746 13.2031 3.79529 13.2034 3.79228C13.2041 3.78625 13.2052 3.77684 13.2067 3.7645C13.2097 3.73978 13.2142 3.70354 13.22 3.65935C13.2317 3.57007 13.2484 3.45249 13.2684 3.33367C13.2891 3.21056 13.3103 3.1057 13.329 3.03462C13.3386 2.9979 13.3423 2.99082 13.3373 3.00329C13.3346 3.01004 13.3245 3.03487 13.3049 3.06968C13.2885 3.09899 13.2445 3.17327 13.1634 3.25384L11.7537 1.83512ZM12.2088 3.68844C13.2032 3.58359 13.2032 3.58353 13.2032 3.58346C13.2032 3.58344 13.2032 3.58336 13.2032 3.58331C13.2032 3.5832 13.2032 3.58307 13.2032 3.58293C13.2032 3.58265 13.2031 3.5823 13.2031 3.5819C13.203 3.58108 13.2029 3.58002 13.2027 3.57872C13.2025 3.57612 13.2021 3.57256 13.2016 3.5681C13.2006 3.55918 13.1992 3.54664 13.1974 3.53095C13.1938 3.49962 13.1887 3.45548 13.182 3.40238C13.1688 3.29709 13.1493 3.15234 13.1245 3.00021C13.1004 2.85247 13.0682 2.67745 13.0272 2.51906C13.007 2.44106 12.9793 2.34561 12.9416 2.25047C12.9169 2.18843 12.8379 1.98998 12.6631 1.81786L11.2598 3.24283C11.1774 3.16175 11.1328 3.08665 11.1159 3.05662C11.0959 3.02117 11.0856 2.9958 11.0828 2.98878C11.0777 2.97578 11.0813 2.98263 11.0909 3.01966C11.1094 3.09131 11.1302 3.19721 11.1505 3.32179C11.1701 3.44198 11.1862 3.56095 11.1975 3.65129C11.2032 3.69601 11.2075 3.73268 11.2103 3.75769C11.2117 3.77018 11.2128 3.7797 11.2135 3.78579C11.2138 3.78884 11.214 3.79103 11.2142 3.7923C11.2142 3.79293 11.2143 3.79333 11.2143 3.7935C11.2143 3.79359 11.2143 3.79361 11.2143 3.79357C11.2143 3.79356 11.2143 3.79352 11.2143 3.79347C11.2143 3.79345 11.2143 3.7934 11.2143 3.79339C11.2143 3.79334 11.2143 3.79328 12.2088 3.68844ZM12.6631 1.81786C12.4663 1.62398 12.2267 1.53249 12.1399 1.49981C12.0134 1.45219 11.8843 1.41645 11.7828 1.39122C11.6776 1.36507 11.5806 1.34501 11.5113 1.33163C11.4761 1.32483 11.4468 1.31951 11.4254 1.31576C11.4147 1.31389 11.406 1.31239 11.3994 1.31128C11.3961 1.31073 11.3934 1.31028 11.3913 1.30992C11.3902 1.30974 11.3893 1.30959 11.3885 1.30946C11.3881 1.3094 11.3877 1.30934 11.3874 1.30929C11.3873 1.30926 11.3871 1.30924 11.387 1.30922C11.3869 1.30921 11.3868 1.30919 11.3868 1.30918C11.3867 1.30917 11.3866 1.30915 11.2266 2.29627C11.0666 3.28339 11.0665 3.28338 11.0664 3.28336C11.0664 3.28336 11.0663 3.28334 11.0663 3.28334C11.0662 3.28332 11.0661 3.2833 11.066 3.28329C11.0658 3.28326 11.0657 3.28324 11.0656 3.28322C11.0653 3.28319 11.0653 3.28317 11.0653 3.28318C11.0654 3.2832 11.0661 3.28331 11.0672 3.28349C11.0694 3.28387 11.0736 3.28458 11.0794 3.28561C11.0912 3.28767 11.1094 3.29096 11.1322 3.29536C11.1788 3.30436 11.2394 3.31702 11.3004 3.33218C11.3651 3.34827 11.411 3.36245 11.4354 3.37162C11.4473 3.37608 11.4395 3.37398 11.4192 3.36317C11.4062 3.35625 11.3381 3.31997 11.2598 3.24283L12.6631 1.81786ZM11.2266 2.29627C11.3948 3.28203 11.3949 3.28201 11.3949 3.282C11.395 3.28199 11.3951 3.28197 11.3951 3.28196C11.3953 3.28194 11.3954 3.28191 11.3956 3.28189C11.3959 3.28183 11.3962 3.28177 11.3966 3.28171C11.3974 3.28158 11.3983 3.28142 11.3994 3.28123C11.4015 3.28086 11.4042 3.28038 11.4075 3.27981C11.4141 3.27865 11.4228 3.27708 11.4336 3.2751C11.455 3.27117 11.4845 3.26559 11.5198 3.25849C11.5896 3.24449 11.6869 3.22362 11.7925 3.19672C11.8943 3.17075 12.0234 3.13428 12.1494 3.08639C12.2344 3.05407 12.4746 2.96193 12.671 2.76808L11.2661 1.34464C11.3449 1.26684 11.4135 1.23048 11.4252 1.2242C11.4447 1.21379 11.4515 1.21203 11.4387 1.2169C11.4126 1.22683 11.3648 1.24178 11.2985 1.25867C11.236 1.27462 11.1739 1.28804 11.1262 1.29762C11.1028 1.3023 11.0841 1.30583 11.072 1.30806C11.0659 1.30917 11.0616 1.30994 11.0593 1.31036C11.0581 1.31057 11.0574 1.31069 11.0572 1.31071C11.0572 1.31073 11.0572 1.31072 11.0574 1.31069C11.0575 1.31067 11.0576 1.31065 11.0578 1.31062C11.0579 1.3106 11.058 1.31059 11.0581 1.31057C11.0581 1.31056 11.0582 1.31055 11.0582 1.31055C11.0583 1.31053 11.0584 1.31052 11.2266 2.29627ZM12.671 2.76808C12.844 2.59733 12.9226 2.40146 12.9478 2.3383C12.9856 2.24339 13.0131 2.14851 13.033 2.07132C13.0734 1.91463 13.1048 1.74223 13.1281 1.59737C13.152 1.44809 13.1707 1.30624 13.1833 1.20314C13.1897 1.15113 13.1947 1.10791 13.1981 1.07719C13.1998 1.06181 13.2011 1.0495 13.202 1.04074C13.2025 1.03635 13.2028 1.03285 13.2031 1.03028C13.2032 1.02899 13.2034 1.02794 13.2034 1.02713C13.2035 1.02673 13.2035 1.02638 13.2035 1.0261C13.2036 1.02596 13.2036 1.02583 13.2036 1.02572C13.2036 1.02566 13.2036 1.02559 13.2036 1.02556C13.2036 1.0255 13.2036 1.02543 12.2088 0.924072C11.2139 0.822714 11.2139 0.822657 11.2139 0.822604C11.2139 0.822591 11.2139 0.822542 11.2139 0.822517C11.2139 0.822466 11.2139 0.82243 11.2139 0.822409C11.2139 0.822366 11.2139 0.822382 11.2139 0.822456C11.2139 0.822604 11.2139 0.822983 11.2138 0.823586C11.2137 0.824791 11.2135 0.826891 11.2132 0.829829C11.2125 0.835708 11.2116 0.84492 11.2102 0.857023C11.2075 0.881271 11.2035 0.916869 11.1981 0.960309C11.1874 1.04811 11.1721 1.16364 11.1534 1.2803C11.1339 1.40139 11.114 1.5035 11.0963 1.57196C11.0872 1.60734 11.084 1.6127 11.0897 1.59844C11.0927 1.59075 11.1032 1.56498 11.1234 1.52929C11.1407 1.49869 11.185 1.42465 11.2661 1.34464L12.671 2.76808Z" fill="white" mask="url(#path-3-inside-1_4084_1771)"/>
</svg>
